<svg width="67" height="44" viewBox="0 0 67 44" fill="none" xmlns="http://www.w3.org/2000/svg">
<path d="M39.6157 9.95862C41.2935 8.36658 40.1119 5.64099 37.7488 5.64099H2.72848C0.364623 5.64099 -0.817031 8.36658 0.857024 9.95862L17.7142 25.9915V39.2051H13.8652C11.777 39.2051 10.1551 40.8151 10.1551 42.8012C10.1551 43.4632 10.7194 44 11.4154 44H29.0603C29.7563 44 30.3206 43.4632 30.3206 42.8012C30.3206 40.8151 28.6278 39.2051 26.5396 39.2051H22.8294V25.9892L39.6157 9.95862ZM31.9827 10.4359L26.9405 15.2307H13.5344L8.49299 10.4359H31.9827Z" fill="black"/>
<path d="M53.3924 26.3718H29.1938C27.5238 26.3718 26.1689 27.9826 26.1689 29.9679V34.7628C26.1689 36.7482 27.5238 38.359 29.1938 38.359H53.3924C53.9438 38.359 54.4007 37.8158 54.4007 37.1603V27.5705C54.4007 26.9187 53.947 26.3718 53.3924 26.3718ZM51.3759 34.7628H40.2848V29.9679H51.3759V34.7628ZM59.9462 26.3718H56.9214C56.6441 26.3718 56.4172 26.6415 56.4172 26.9712V37.7596C56.4172 38.0874 56.6457 38.359 56.9214 38.359H59.9462C60.2219 38.359 60.4504 38.0874 60.4504 37.7596V26.9712C60.4504 26.6415 60.2235 26.3718 59.9462 26.3718ZM65.9959 26.3718H62.971C62.6938 26.3718 62.4669 26.6415 62.4669 26.9712V37.7596C62.4669 38.0874 62.6953 38.359 62.971 38.359H65.9959C66.2716 38.359 66.5 38.0874 66.5 37.7596V26.9712C66.5 26.6415 66.2732 26.3718 65.9959 26.3718ZM61.0364 6.52777C60.6772 6.23708 60.4504 5.77782 60.4504 5.26312V0.599359C60.4504 0.271585 60.2235 0 59.9462 0H56.9214C56.6441 0 56.4172 0.271585 56.4172 0.599359V5.26312C56.4172 6.91136 57.0632 8.52214 58.2208 9.42117C60.8789 11.4627 62.4669 14.9465 62.4669 18.715V20.9776C62.4669 21.3072 62.6938 21.5769 62.971 21.5769H65.9959C66.2732 21.5769 66.5 21.3072 66.5 20.9776V18.715C66.5 13.8077 64.4583 9.2526 61.0364 6.52777ZM56.9088 10.6087C55.3964 9.36498 54.4007 7.4358 54.4007 5.26312V0.599359C54.4007 0.271585 54.1738 0 53.8966 0H50.8717C50.5944 0 50.3676 0.271585 50.3676 0.599359V5.57254C50.3676 8.84804 51.9178 11.6875 54.1675 13.568C55.5854 14.7442 56.4172 16.6547 56.4172 18.715V20.9776C56.4172 21.3072 56.6441 21.5769 56.9214 21.5769H59.9462C60.2235 21.5769 60.4504 21.3072 60.4504 20.9776V18.715C60.4504 15.4635 59.127 12.4592 56.9088 10.6087Z" fill="black"/>
</svg>
